<?xml version="1.0" standalone="no"?>
<!DOCTYPE svg PUBLIC "-//W3C//DTD SVG 20010904//EN"
 "http://www.w3.org/TR/2001/REC-SVG-20010904/DTD/svg10.dtd">
<svg version="1.0" xmlns="http://www.w3.org/2000/svg"
 width="306.000000pt" height="306.000000pt" viewBox="0 0 306.000000 306.000000"
 preserveAspectRatio="xMidYMid meet">
<metadata>
Created by potrace 1.11, written by Peter Selinger 2001-2013
</metadata>
<g transform="translate(0.000000,306.000000) scale(0.100000,-0.100000)"
fill="#000000" stroke="none">
<path d="M319 2862 c-1 -4 0 -16 1 -27 1 -16 -1 -18 -11 -7 -18 17 -34 15 -19
-3 11 -13 10 -14 -5 -9 -15 6 -16 4 -5 -15 9 -17 9 -46 1 -122 -13 -122 -14
-333 -2 -414 6 -33 13 -84 16 -114 9 -73 42 -196 65 -241 16 -31 19 -61 21
-173 0 -75 -3 -141 -7 -149 -9 -13 -10 -18 -13 -38 0 -5 -7 -10 -15 -10 -13 0
-43 -57 -38 -72 1 -5 -2 -8 -6 -8 -12 0 -12 -3 -17 -185 -4 -140 3 -255 21
-374 5 -30 4 -33 -13 -26 -10 4 -31 9 -48 11 -28 3 -29 3 -5 -5 24 -9 23 -9
-10 -11 -25 -2 -28 -4 -12 -7 29 -6 28 -19 -2 -25 -15 -3 -27 0 -30 8 -3 8
-18 14 -33 13 -15 0 -23 -3 -16 -5 16 -7 5 -34 -15 -34 -8 0 -23 6 -31 14 -15
13 -47 20 -78 17 -15 -1 -18 -61 -3 -61 7 0 7 -6 0 -19 -6 -13 -10 -156 -10
-395 l0 -376 1235 0 c1091 0 1235 2 1236 15 2 23 4 29 11 41 13 20 20 111 10
118 -7 4 -2 22 13 48 17 30 21 46 14 55 -8 9 -4 18 14 35 25 24 73 157 68 190
-1 10 3 18 9 18 8 0 10 13 6 40 -5 35 -3 40 15 40 11 0 17 4 14 10 -3 5 -1 10
5 10 6 0 9 4 6 8 -3 5 13 19 34 31 22 12 40 29 40 37 0 8 6 17 13 20 12 4 17
22 21 72 0 12 5 22 9 22 11 0 4 33 -8 42 -6 5 -3 8 6 8 19 0 44 47 27 52 -8 3
-7 11 1 27 7 13 10 34 7 47 -5 19 -2 24 11 24 15 0 16 2 3 10 -8 5 -10 10 -5
10 6 0 11 20 12 45 0 25 -2 45 -6 45 -3 0 -5 17 -4 37 6 89 6 97 -9 107 -14 9
-14 12 -1 33 8 13 11 23 7 23 -5 0 -10 22 -10 49 -1 27 -9 64 -18 82 -9 17
-16 38 -16 46 0 7 -4 13 -9 13 -15 0 -18 33 -10 102 6 48 4 82 -6 120 -12 47
-11 56 5 88 37 72 70 200 95 358 27 177 30 237 15 351 -23 175 -55 247 -104
234 -12 -3 -39 -7 -61 -8 -92 -6 -208 -62 -297 -144 -33 -31 -64 -55 -68 -54
-8 2 -32 -23 -120 -123 -45 -51 -87 -80 -127 -89 -18 -3 -33 -11 -33 -15 0
-15 -80 -35 -89 -22 -8 14 -71 13 -71 -2 0 -6 -4 -6 -11 1 -8 8 -20 8 -34 3
-13 -5 -26 -6 -29 -3 -3 3 -16 -1 -29 -10 -18 -12 -27 -13 -36 -4 -6 6 -11 8
-11 5 0 -4 -14 -3 -30 2 -20 6 -30 5 -30 -2 0 -6 -9 -8 -20 -5 -10 3 -39 -2
-62 -10 -24 -9 -76 -17 -116 -18 -58 -2 -74 0 -82 14 -8 14 -11 14 -20 1 -8
-12 -10 -9 -10 13 0 26 -20 40 -20 15 0 -9 -3 -9 -9 1 -8 12 -12 12 -25 2 -13
-11 -16 -11 -16 0 0 9 -3 10 -8 3 -11 -17 -50 -23 -56 -9 -7 20 -46 26 -47 7
0 -10 -3 -12 -6 -5 -2 7 -21 15 -41 19 -49 9 -112 53 -153 106 -18 24 -54 65
-81 91 -26 27 -48 53 -48 57 0 5 -4 10 -9 12 -5 2 -26 23 -46 48 -21 25 -41
45 -44 45 -4 0 -22 15 -41 32 -44 41 -145 94 -230 121 -69 22 -169 36 -171 24z
m681 -1182 c-10 -19 -10 -21 7 -16 18 6 19 2 12 -51 -7 -64 3 -96 29 -91 12 2
20 20 28 63 9 51 11 56 17 33 8 -29 -6 -73 -30 -101 -9 -9 -14 -19 -12 -22 7
-6 79 44 79 55 0 13 32 50 43 50 5 0 7 -7 3 -15 -3 -8 -1 -15 4 -15 6 0 10 5
10 11 0 5 5 7 10 4 35 -22 -29 -135 -76 -135 -15 0 -22 5 -18 13 3 9 -9 12
-46 11 -34 0 -50 3 -50 12 0 7 -8 10 -17 8 -32 -8 -113 63 -113 99 0 30 53 87
81 87 11 0 17 4 14 10 -3 6 1 7 9 4 10 -4 16 -1 16 7 0 7 3 10 6 7 3 -4 0 -16
-6 -28z m114 -125 c3 -8 1 -15 -4 -15 -6 0 -10 7 -10 15 0 8 2 15 4 15 2 0 6
-7 10 -15z m336 -214 c0 -5 -7 -12 -16 -15 -14 -5 -15 -4 -4 9 14 17 20 19 20
6z m-7 -488 c-7 -2 -19 -2 -25 0 -7 3 -2 5 12 5 14 0 19 -2 13 -5z m277 -73
c0 -5 -10 -15 -22 -21 -23 -12 -23 -12 -4 10 21 23 26 26 26 11z"/>
<path d="M3027 2635 c-15 -23 -31 -65 -37 -95 -5 -30 -30 -332 -55 -670 -24
-338 -49 -671 -54 -740 -6 -69 -13 -177 -16 -240 -4 -63 -8 -122 -10 -130 -2
-8 -7 -67 -10 -130 -3 -63 -12 -216 -20 -339 -15 -232 -18 -297 -11 -290 2 2
11 108 20 234 9 127 18 253 21 280 3 28 8 88 11 135 3 47 9 129 15 184 5 54 9
102 9 106 0 5 15 11 33 13 l32 4 -32 1 c-32 2 -33 3 -33 46 0 25 4 47 9 50 5
3 7 15 4 26 -4 16 9 212 22 325 2 17 6 75 10 130 3 55 8 116 10 135 3 19 7 76
10 125 3 50 8 101 10 115 3 14 7 61 10 105 3 44 10 125 15 180 5 55 12 136 15
180 9 138 16 179 37 222 11 24 18 51 16 60 -3 14 -10 9 -31 -22z"/>
<path d="M2958 653 c12 -2 30 -2 40 0 9 3 -1 5 -23 4 -22 0 -30 -2 -17 -4z"/>
<path d="M3028 653 c6 -2 18 -2 25 0 6 3 1 5 -13 5 -14 0 -19 -2 -12 -5z"/>
<path d="M3053 45 c0 -27 2 -38 4 -22 2 15 2 37 0 50 -2 12 -4 0 -4 -28z"/>
</g>
</svg>
